<svg width="77" height="77" viewBox="0 0 77 77" fill="none" xmlns="http://www.w3.org/2000/svg">
<path d="M52.3359 14.3621C48.6206 10.0713 44.4391 6.2075 39.8686 2.8422C39.464 2.55877 38.982 2.40674 38.488 2.40674C37.994 2.40674 37.512 2.55877 37.1074 2.8422C32.5453 6.2089 28.3719 10.0726 24.6641 14.3621C16.3956 23.8578 12.0312 33.8678 12.0312 43.3123C12.0313 50.3323 14.8199 57.0647 19.7838 62.0285C24.7476 66.9924 31.4801 69.7811 38.5 69.7811C45.5199 69.7811 52.2524 66.9924 57.2162 62.0285C62.1801 57.0647 64.9688 50.3323 64.9688 43.3123C64.9688 33.8678 60.6044 23.8578 52.3359 14.3621ZM55.2986 46.1216C54.6747 49.6068 52.9979 52.8171 50.4941 55.3204C47.9903 57.8237 44.7796 59.4998 41.2943 60.123C41.1659 60.1436 41.0362 60.1546 40.9062 60.1561C40.3027 60.1559 39.7212 59.9289 39.2771 59.5201C38.8331 59.1113 38.5589 58.5505 38.5089 57.949C38.4589 57.3475 38.6368 56.7492 39.0074 56.2727C39.3779 55.7962 39.9139 55.4764 40.5092 55.3766C45.4932 54.5375 49.7221 50.3085 50.5673 45.3155C50.6742 44.6861 51.0268 44.125 51.5474 43.7555C52.0681 43.386 52.7142 43.2385 53.3436 43.3454C53.973 43.4523 54.5341 43.8048 54.9036 44.3255C55.2731 44.8461 55.4206 45.4922 55.3137 46.1216H55.2986Z" fill="#EDEDED"/>
</svg>
