<svg width="77" height="77" viewBox="0 0 77 77" fill="none" xmlns="http://www.w3.org/2000/svg">
<g clip-path="url(#clip0_1798_307)">
<path d="M36.267 41.6618L49.8768 28.0424C50.3242 27.5956 50.8553 27.2413 51.4396 26.9997C52.024 26.7582 52.6503 26.6341 53.2826 26.6345C53.9149 26.635 54.541 26.7599 55.125 27.0023C55.7091 27.2447 56.2396 27.5998 56.6864 28.0473C57.1333 28.4947 57.4876 29.0258 57.7291 29.6101C57.9707 30.1945 58.0948 30.8208 58.0944 31.4531C58.0939 32.0854 57.9689 32.7115 57.7265 33.2955C57.4841 33.8796 57.1291 34.4101 56.6816 34.8569L39.6694 51.8691C39.2228 52.3169 38.6923 52.6722 38.1082 52.9148C37.5242 53.1574 36.898 53.2825 36.2656 53.283C35.6332 53.2834 35.0068 53.1592 34.4224 52.9174C33.838 52.6757 33.307 52.3211 32.8598 51.8739L22.6573 41.6714C22.1973 41.2278 21.8303 40.697 21.5777 40.1101C21.3251 39.5231 21.1919 38.8917 21.1859 38.2527C21.1799 37.6137 21.3012 36.98 21.5427 36.3884C21.7843 35.7968 22.1413 35.2592 22.5928 34.807C23.0443 34.3548 23.5814 33.9971 24.1727 33.7547C24.7639 33.5123 25.3975 33.3901 26.0365 33.3952C26.6755 33.4003 27.3071 33.5326 27.8944 33.7844C28.4818 34.0362 29.013 34.4024 29.4573 34.8617L36.267 41.6618ZM38.5 77C28.2892 77 18.4965 72.9438 11.2764 65.7236C4.05624 58.5035 0 48.7108 0 38.5C0 28.2892 4.05624 18.4965 11.2764 11.2764C18.4965 4.05624 28.2892 0 38.5 0C48.7108 0 58.5035 4.05624 65.7236 11.2764C72.9438 18.4965 77 28.2892 77 38.5C77 48.7108 72.9438 58.5035 65.7236 65.7236C58.5035 72.9438 48.7108 77 38.5 77ZM38.5 67.375C42.2919 67.375 46.0467 66.6281 49.55 65.177C53.0533 63.7259 56.2364 61.599 58.9177 58.9177C61.599 56.2364 63.7259 53.0533 65.177 49.55C66.6281 46.0467 67.375 42.2919 67.375 38.5C67.375 34.7081 66.6281 30.9533 65.177 27.45C63.7259 23.9467 61.599 20.7636 58.9177 18.0823C56.2364 15.401 53.0533 13.2741 49.55 11.823C46.0467 10.3719 42.2919 9.625 38.5 9.625C30.8419 9.625 23.4974 12.6672 18.0823 18.0823C12.6672 23.4974 9.625 30.8419 9.625 38.5C9.625 46.1581 12.6672 53.5026 18.0823 58.9177C23.4974 64.3328 30.8419 67.375 38.5 67.375Z" fill="#EDEDED"/>
</g>
<defs>
<clipPath id="clip0_1798_307">
<rect width="77" height="77" fill="white"/>
</clipPath>
</defs>
</svg>
