<svg width="100" height="100" viewBox="0 0 100 100" fill="none" xmlns="http://www.w3.org/2000/svg">
<g id="material-symbols:search">
<path id="Vector" d="M81.1667 88L54.9167 61.75C52.8333 63.4167 50.4375 64.7361 47.7292 65.7083C45.0208 66.6806 42.1389 67.1667 39.0833 67.1667C31.5139 67.1667 25.1083 64.5444 19.8667 59.3C14.625 54.0556 12.0028 47.65 12 40.0833C12 32.5139 14.6222 26.1083 19.8667 20.8667C25.1111 15.625 31.5167 13.0028 39.0833 13C46.6528 13 53.0583 15.6222 58.3 20.8667C63.5417 26.1111 66.1639 32.5167 66.1667 40.0833C66.1667 43.1389 65.6806 46.0208 64.7083 48.7292C63.7361 51.4375 62.4167 53.8333 60.75 55.9167L87 82.1667L81.1667 88ZM39.0833 58.8333C44.2917 58.8333 48.7194 57.0097 52.3667 53.3625C56.0139 49.7153 57.8361 45.2889 57.8333 40.0833C57.8333 34.875 56.0097 30.4472 52.3625 26.8C48.7153 23.1528 44.2889 21.3306 39.0833 21.3333C33.875 21.3333 29.4472 23.1569 25.8 26.8042C22.1528 30.4514 20.3306 34.8778 20.3333 40.0833C20.3333 45.2917 22.1569 49.7194 25.8042 53.3667C29.4514 57.0139 33.8778 58.8361 39.0833 58.8333Z" fill="#B70000"/>
</g>
</svg>
